<?xml version="1.0" encoding="utf-8"?>
<!-- Generator: Adobe Illustrator 15.0.0, SVG Export Plug-In . SVG Version: 6.00 Build 0)  -->
<!DOCTYPE svg PUBLIC "-//W3C//DTD SVG 1.1//EN" "http://www.w3.org/Graphics/SVG/1.1/DTD/svg11.dtd">
<svg version="1.1" id="Layer_1" xmlns="http://www.w3.org/2000/svg" xmlns:xlink="http://www.w3.org/1999/xlink" x="0px" y="0px"
	 width="256px" height="256px" viewBox="0 0 256 256" enable-background="new 0 0 256 256" xml:space="preserve">
<circle fill="#404F7E" stroke="#020202" stroke-width="4" stroke-miterlimit="10" cx="127.825" cy="128.593" r="114.639"/>
<g enable-background="new    ">
	<path fill="#020202" d="M197.231,142.234c-2.356,11.63-6.221,21.41-11.59,29.334c-5.373,7.927-11.963,14.058-19.768,18.395
		c-7.811,4.34-16.779,6.963-26.921,7.866c-10.138,0.903-21.152,0.154-33.038-2.251c-5.428-1.1-11.716-2.611-18.861-4.527
		c-7.145-1.92-14.062-4.293-20.753-7.129L92.8,53.08c7.241,0.125,14.687,0.724,22.338,1.8c7.651,1.08,14.19,2.167,19.618,3.268
		c11.502,2.329,21.673,5.736,30.521,10.216c8.844,4.485,16.064,10.184,21.659,17.101c5.594,6.918,9.323,15.075,11.189,24.464
		C199.988,119.317,199.691,130.09,197.231,142.234z M101.173,167.173c1.395,0.419,3.022,0.848,4.885,1.291
		c1.858,0.447,4.082,0.928,6.668,1.45c15.12,3.063,27.099,1.524,35.948-4.625c8.843-6.146,14.629-15.936,17.353-29.378
		c2.853-14.083,1.522-25.45-3.989-34.104c-5.514-8.649-15.831-14.505-30.949-17.567c-2.067-0.42-4.207-0.817-6.417-1.199
		c-2.211-0.378-4.309-0.635-6.302-0.771L101.173,167.173z"/>
</g>
<line fill="none" stroke="#020202" stroke-width="12" stroke-miterlimit="10" x1="155.655" y1="34.477" x2="148.788" y2="68.361"/>
<line fill="none" stroke="#020202" stroke-width="12" stroke-miterlimit="10" x1="123.547" y1="193.012" x2="117.046" y2="225.109"/>
<line fill="none" stroke="#020202" stroke-width="12" stroke-miterlimit="10" x1="121.896" y1="27.936" x2="115.034" y2="61.819"/>
<line fill="none" stroke="#020202" stroke-width="12" stroke-miterlimit="10" x1="89.793" y1="186.471" x2="83.288" y2="218.564"/>
</svg>
